<svg width="40" height="40" viewBox="0 0 40 40" fill="none" xmlns="http://www.w3.org/2000/svg">
<path d="M24.8295 27.1633C24.7628 27.5156 24.6923 27.8589 24.6178 28.1933C23.6685 28.4805 22.8369 29.0657 22.2461 29.8624C21.6554 30.6591 21.3369 31.6249 21.3378 32.6167V32.7883C21.3378 33.5633 21.4778 34.3383 21.7712 35.0733C21.0978 35.8833 20.3828 36.3283 19.6712 36.3283C17.6762 36.3283 15.6695 32.8383 14.6078 27.655L14.5112 27.165L24.8295 27.1633ZM24.6712 23.83C24.6712 22.74 24.9712 21.72 25.4912 20.8467C25.5319 19.3402 25.4941 17.8326 25.3778 16.33H13.9628L13.9078 17.145C13.7631 19.6528 13.8367 22.1683 14.1278 24.6633H24.7312C24.6913 24.3873 24.6712 24.1089 24.6712 23.83ZM30.5045 17.9967C31.784 17.9964 33.0281 18.4169 34.0452 19.1933C35.0622 19.9697 35.7958 21.059 36.1328 22.2933C36.4459 20.3139 36.403 18.2944 36.0062 16.33H27.8895L27.9545 17.425C27.9712 17.8006 27.9845 18.18 27.9945 18.5633C28.7545 18.2 29.6062 17.9967 30.5045 17.9967ZM4.7795 27.165H11.9562C12.5645 30.635 13.5945 33.5883 14.9428 35.6533C10.7061 34.3952 7.14 31.5104 5.0245 27.63L4.7795 27.165ZM3.3345 16.3317H11.4512C11.2753 18.7848 11.2937 21.2481 11.5062 23.6983L11.6028 24.665H3.7645C2.92047 21.968 2.77255 19.1012 3.3345 16.3317ZM24.5778 3.95833L24.3978 3.675C26.8749 4.4106 29.1477 5.71043 31.0378 7.47241C32.9279 9.23439 34.3838 11.4106 35.2912 13.83H27.6378C27.1112 9.80333 26.0428 6.34333 24.5762 3.95833M14.7378 3.73667L14.9412 3.675C13.4745 5.925 12.3828 9.22333 11.8028 13.0983L11.7012 13.8317H4.05116C4.94514 11.4455 6.37277 9.29536 8.22495 7.54544C10.0771 5.79552 12.3048 4.49384 14.7378 3.73667ZM19.6712 3C21.8678 3 24.0795 7.23667 25.0278 13.305L25.1045 13.83H14.2378C15.1378 7.48167 17.4112 3 19.6712 3ZM34.6712 23.83C34.6712 24.9351 34.2322 25.9949 33.4508 26.7763C32.6694 27.5577 31.6096 27.9967 30.5045 27.9967C29.3994 27.9967 28.3396 27.5577 27.5582 26.7763C26.7768 25.9949 26.3378 24.9351 26.3378 23.83C26.3378 22.7249 26.7768 21.6651 27.5582 20.8837C28.3396 20.1023 29.3994 19.6633 30.5045 19.6633C31.6096 19.6633 32.6694 20.1023 33.4508 20.8837C34.2322 21.6651 34.6712 22.7249 34.6712 23.83ZM38.0045 32.7883C38.0045 35.3817 35.8612 37.9967 30.5045 37.9967C25.1478 37.9967 23.0045 35.3917 23.0045 32.7883V32.6167C23.0045 30.9833 24.3278 29.6633 25.9595 29.6633H35.0495C36.6828 29.6633 38.0045 30.985 38.0045 32.6167V32.7883Z" fill="#221313"/>
<path d="M24.8295 27.1633C24.7628 27.5156 24.6923 27.8589 24.6178 28.1933C23.6685 28.4805 22.8369 29.0657 22.2461 29.8624C21.6554 30.6591 21.3369 31.6249 21.3378 32.6167V32.7883C21.3378 33.5633 21.4778 34.3383 21.7712 35.0733C21.0978 35.8833 20.3828 36.3283 19.6712 36.3283C17.6762 36.3283 15.6695 32.8383 14.6078 27.655L14.5112 27.165L24.8295 27.1633ZM24.6712 23.83C24.6712 22.74 24.9712 21.72 25.4912 20.8467C25.5319 19.3402 25.4941 17.8326 25.3778 16.33H13.9628L13.9078 17.145C13.7631 19.6528 13.8367 22.1683 14.1278 24.6633H24.7312C24.6913 24.3873 24.6712 24.1089 24.6712 23.83ZM30.5045 17.9967C31.784 17.9964 33.0281 18.4169 34.0452 19.1933C35.0622 19.9697 35.7958 21.059 36.1328 22.2933C36.4459 20.3139 36.403 18.2944 36.0062 16.33H27.8895L27.9545 17.425C27.9712 17.8006 27.9845 18.18 27.9945 18.5633C28.7545 18.2 29.6062 17.9967 30.5045 17.9967ZM4.7795 27.165H11.9562C12.5645 30.635 13.5945 33.5883 14.9428 35.6533C10.7061 34.3952 7.14 31.5104 5.0245 27.63L4.7795 27.165ZM3.3345 16.3317H11.4512C11.2753 18.7848 11.2937 21.2481 11.5062 23.6983L11.6028 24.665H3.7645C2.92047 21.968 2.77255 19.1012 3.3345 16.3317ZM24.5778 3.95833L24.3978 3.675C26.8749 4.4106 29.1477 5.71043 31.0378 7.47241C32.9279 9.23439 34.3838 11.4106 35.2912 13.83H27.6378C27.1112 9.80333 26.0428 6.34333 24.5762 3.95833M14.7378 3.73667L14.9412 3.675C13.4745 5.925 12.3828 9.22333 11.8028 13.0983L11.7012 13.8317H4.05116C4.94514 11.4455 6.37277 9.29536 8.22495 7.54544C10.0771 5.79552 12.3048 4.49384 14.7378 3.73667ZM19.6712 3C21.8678 3 24.0795 7.23667 25.0278 13.305L25.1045 13.83H14.2378C15.1378 7.48167 17.4112 3 19.6712 3Z" fill="#FFE943"/>
</svg>
