<svg width="40" height="40" viewBox="0 0 40 40" fill="none" xmlns="http://www.w3.org/2000/svg">
<path d="M18 4C15.8783 4 13.8434 4.84285 12.3431 6.34315C10.8429 7.84344 10 9.87827 10 12C10 14.1217 10.8429 16.1566 12.3431 17.6569C13.8434 19.1571 15.8783 20 18 20C20.1217 20 22.1566 19.1571 23.6569 17.6569C25.1571 16.1566 26 14.1217 26 12C26 9.87827 25.1571 7.84344 23.6569 6.34315C22.1566 4.84285 20.1217 4 18 4ZM8.018 22C7.4912 21.9976 6.96912 22.0993 6.48174 22.2993C5.99436 22.4993 5.55127 22.7935 5.17793 23.1652C4.80459 23.5369 4.50834 23.9786 4.30619 24.4651C4.10405 24.9516 3.99999 25.4732 4 26C4 29.382 5.666 31.932 8.27 33.594C10.834 35.228 14.29 36 18 36C19.91 36 21.752 35.796 23.44 35.374L19.78 31.37C18.6016 30.0827 17.9643 28.391 18.0004 26.6461C18.0366 24.9013 18.7433 23.2374 19.974 22H8.018ZM28.998 24.006L27.742 23.02C26.7966 22.2769 25.6061 21.9169 24.4073 22.0113C23.2086 22.1057 22.0892 22.6478 21.2718 23.5297C20.4543 24.4117 19.9987 25.5689 19.9954 26.7714C19.9921 27.9739 20.4414 29.1336 21.254 30.02L28.26 37.68C28.3537 37.7825 28.4677 37.8643 28.5948 37.9203C28.7218 37.9763 28.8591 38.0052 28.998 38.0052C29.1368 38.0052 29.2742 37.9763 29.4012 37.9203C29.5283 37.8643 29.6423 37.7825 29.736 37.68L36.744 30.02C37.5566 29.1336 38.0059 27.9739 38.0026 26.7714C37.9993 25.5689 37.5437 24.4117 36.7262 23.5297C35.9088 22.6478 34.7894 22.1057 33.5907 22.0113C32.3919 21.9169 31.2015 22.2769 30.256 23.02L28.998 24.006Z" fill="#221313"/>
<path d="M29.0026 24.0095L27.7466 23.0235C26.8012 22.2804 25.6107 21.9204 24.412 22.0148C23.2132 22.1092 22.0938 22.6513 21.2764 23.5332C20.459 24.4152 20.0033 25.5724 20 26.7749C19.9967 27.9774 20.446 29.1371 21.2586 30.0235L28.2646 37.6835C28.3583 37.786 28.4723 37.8678 28.5994 37.9238C28.7264 37.9798 28.8638 38.0087 29.0026 38.0087C29.1415 38.0087 29.2788 37.9798 29.4059 37.9238C29.5329 37.8678 29.6469 37.786 29.7406 37.6835L36.7486 30.0235C37.5612 29.1371 38.0105 27.9774 38.0072 26.7749C38.0039 25.5724 37.5483 24.4152 36.7309 23.5332C35.9134 22.6513 34.7941 22.1092 33.5953 22.0148C32.3965 21.9204 31.2061 22.2804 30.2606 23.0235L29.0026 24.0095Z" fill="#FFE943"/>
</svg>
