<svg width="160" height="160" viewBox="0 0 160 160" fill="none" xmlns="http://www.w3.org/2000/svg">
<rect width="160" height="160" rx="80" fill="#FFE943"/>
<path fill-rule="evenodd" clip-rule="evenodd" d="M111.819 57.0359C112.756 57.9735 113.283 59.2451 113.283 60.5709C113.283 61.8967 112.756 63.1683 111.819 64.1059L74.3421 101.583C73.8469 102.078 73.2589 102.471 72.6117 102.739C71.9646 103.007 71.2709 103.145 70.5705 103.145C69.87 103.145 69.1763 103.007 68.5292 102.739C67.882 102.471 67.294 102.078 66.7988 101.583L48.1788 82.9659C47.7012 82.5047 47.3203 81.953 47.0583 81.3429C46.7962 80.7329 46.6583 80.0768 46.6525 79.4129C46.6468 78.749 46.7733 78.0906 47.0247 77.4761C47.2761 76.8617 47.6473 76.3034 48.1168 75.8339C48.5863 75.3645 49.1445 74.9932 49.759 74.7418C50.3735 74.4904 51.0319 74.3639 51.6958 74.3697C52.3597 74.3754 53.0158 74.5134 53.6258 74.7754C54.2358 75.0374 54.7876 75.4184 55.2488 75.8959L70.5688 91.2159L104.745 57.0359C105.21 56.5713 105.761 56.2027 106.368 55.9512C106.975 55.6997 107.625 55.5703 108.282 55.5703C108.939 55.5703 109.589 55.6997 110.196 55.9512C110.803 56.2027 111.354 56.5713 111.819 57.0359Z" fill="#221313"/>
</svg>
