<svg width="18" height="17" viewBox="0 0 18 17" fill="none" xmlns="http://www.w3.org/2000/svg">
<path fill-rule="evenodd" clip-rule="evenodd" d="M9.46355 1.81053C9.18364 1.62392 8.81897 1.62392 8.53905 1.81053L2.70572 5.69942C2.47389 5.85397 2.33464 6.11417 2.33464 6.3928V13.8342C2.33464 14.2944 2.70773 14.6675 3.16797 14.6675H5.66797V11.3342C5.66797 9.95344 6.78726 8.83416 8.16797 8.83416H9.83464C11.2153 8.83416 12.3346 9.95344 12.3346 11.3342V14.6675H14.8346C15.2949 14.6675 15.668 14.2944 15.668 13.8342V6.3928C15.668 6.11417 15.5287 5.85397 15.2969 5.69942L9.46355 1.81053ZM7.61455 0.42378C8.4543 -0.136052 9.5483 -0.136052 10.3881 0.423781L16.2214 4.31267C16.9169 4.77633 17.3346 5.55691 17.3346 6.3928V13.8342C17.3346 15.2149 16.2153 16.3342 14.8346 16.3342H11.5013C11.0411 16.3342 10.668 15.9611 10.668 15.5008V11.3342C10.668 10.8739 10.2949 10.5008 9.83464 10.5008H8.16797C7.70773 10.5008 7.33464 10.8739 7.33464 11.3342V15.5008C7.33464 15.9611 6.96154 16.3342 6.5013 16.3342H3.16797C1.78726 16.3342 0.667969 15.2149 0.667969 13.8342V6.3928C0.667969 5.55691 1.08572 4.77633 1.78122 4.31267L7.61455 0.42378Z" fill="#606265"/>
</svg>
