<svg width="81" height="80" viewBox="0 0 81 80" fill="none" xmlns="http://www.w3.org/2000/svg">
<rect x="0.5" width="80" height="80" rx="40" fill="#E0E5EA"/>
<path d="M40.4997 39.9999C37.658 39.9999 35.2254 38.9881 33.2018 36.9645C31.1781 34.9409 30.1663 32.5083 30.1663 29.6666C30.1663 26.8249 31.1781 24.3923 33.2018 22.3687C35.2254 20.3451 37.658 19.3333 40.4997 19.3333C43.3413 19.3333 45.774 20.3451 47.7976 22.3687C49.8212 24.3923 50.833 26.8249 50.833 29.6666C50.833 32.5083 49.8212 34.9409 47.7976 36.9645C45.774 38.9881 43.3413 39.9999 40.4997 39.9999ZM19.833 60.6666V53.4333C19.833 51.9694 20.2102 50.6243 20.9645 49.3981C21.7188 48.1719 22.7195 47.235 23.9663 46.5874C26.6358 45.2527 29.3483 44.2521 32.1038 43.5856C34.8594 42.9191 37.658 42.585 40.4997 42.5833C43.3413 42.5815 46.14 42.9156 48.8955 43.5856C51.6511 44.2555 54.3636 45.2561 57.033 46.5874C58.2816 47.2333 59.2831 48.1701 60.0374 49.3981C60.7918 50.626 61.1681 51.9711 61.1663 53.4333V60.6666H19.833Z" fill="white"/>
<rect x="56.5" y="56" width="24" height="24" rx="12" fill="#221313"/>
<path fill-rule="evenodd" clip-rule="evenodd" d="M67.3237 63.3333C67.0712 63.3333 66.8404 63.476 66.7274 63.7019L66.4645 64.2278C66.1257 64.9053 65.4332 65.3333 64.6756 65.3333H63.833C63.4648 65.3333 63.1663 65.6318 63.1663 66V72C63.1663 72.3682 63.4648 72.6667 63.833 72.6667H73.1663C73.5345 72.6667 73.833 72.3682 73.833 72V66C73.833 65.6318 73.5345 65.3333 73.1663 65.3333H72.3237C71.5662 65.3333 70.8736 64.9053 70.5349 64.2278L70.2719 63.7019C70.159 63.476 69.9281 63.3333 69.6756 63.3333H67.3237ZM65.5349 63.1056C65.8736 62.428 66.5662 62 67.3237 62H69.6756C70.4332 62 71.1257 62.428 71.4645 63.1056L71.7274 63.6315C71.8404 63.8573 72.0712 64 72.3237 64H73.1663C74.2709 64 75.1663 64.8954 75.1663 66V72C75.1663 73.1046 74.2709 74 73.1663 74H63.833C62.7284 74 61.833 73.1046 61.833 72V66C61.833 64.8954 62.7284 64 63.833 64H64.6756C64.9281 64 65.159 63.8573 65.2719 63.6315L65.5349 63.1056Z" fill="white"/>
<path fill-rule="evenodd" clip-rule="evenodd" d="M68.4993 66.6666C67.3948 66.6666 66.4993 67.562 66.4993 68.6666C66.4993 69.7712 67.3948 70.6666 68.4993 70.6666C69.6039 70.6666 70.4993 69.7712 70.4993 68.6666C70.4993 67.562 69.6039 66.6666 68.4993 66.6666ZM65.166 68.6666C65.166 66.8256 66.6584 65.3333 68.4993 65.3333C70.3403 65.3333 71.8327 66.8256 71.8327 68.6666C71.8327 70.5075 70.3403 71.9999 68.4993 71.9999C66.6584 71.9999 65.166 70.5075 65.166 68.6666Z" fill="white"/>
</svg>
